<svg fill="none" height="796" viewBox="0 0 531 796" width="531" xmlns="http://www.w3.org/2000/svg">
<path d="M360.456 347.758C395.731 326.926 423.182 295.072 438.583 257.101C453.983 219.129 456.479 177.147 445.685 137.617C434.891 98.0878 411.407 63.2039 378.849 38.3372C346.29 13.4705 306.463 0 265.5 0C224.537 0 184.71 13.4705 152.151 38.3372C119.593 63.2039 96.1086 98.0878 85.315 137.617C74.5214 177.147 77.0169 219.129 92.4173 257.101C107.818 295.072 135.269 326.926 170.544 347.758L0 796H140.82L170.341 710.129H360.659L390.18 796H531L360.456 347.758ZM265.723 119.026C279.121 119.026 292.217 123.001 303.356 130.448C314.495 137.895 323.177 148.479 328.302 160.862C333.427 173.244 334.766 186.87 332.149 200.014C329.533 213.158 323.078 225.231 313.602 234.705C304.125 244.179 292.053 250.628 278.912 253.238C265.771 255.848 252.151 254.5 239.776 249.366C227.401 244.231 216.825 235.541 209.388 224.393C201.951 213.246 197.985 200.142 197.993 186.74C198.015 168.781 205.159 151.564 217.857 138.869C230.555 126.173 247.771 119.037 265.723 119.026ZM207.657 603.095L265.723 438.056L323.546 603.095H207.657Z" fill="black"></path>
</svg>