<?xml version="1.0" encoding="UTF-8" standalone="no"?>
<!-- Created with Inkscape (http://www.inkscape.org/) -->
<svg
   xmlns:svg="http://www.w3.org/2000/svg"
   xmlns="http://www.w3.org/2000/svg"
   version="1.0"
   width="746.85828"
   height="874.06299"
   id="svg2910"
   xml:space="preserve"><defs
     id="defs2913"><clipPath
   id="clipPath2925"><path
     d="M 0,0 L 595.276,0 L 595.276,841.89 L 0,841.89 L 0,0 z"
     id="path2927" /></clipPath><clipPath
   id="clipPath2933"><path
     d="M 0,0 L 595.278,0 L 595.278,841.887 L 0,841.887 L 0,0 z"
     id="path2935" /></clipPath><clipPath
   id="clipPath2947"><path
     d="M 246.744,841.392 L 348.534,841.392 L 348.534,661.86 L 246.744,661.86 L 246.744,841.392 z"
     id="path2949" /></clipPath><clipPath
   id="clipPath2955"><path
     d="M 245.187,696.717 L 349.704,696.717 L 349.704,841.383 L 245.187,841.383 L 245.187,696.717 z"
     id="path2957" /></clipPath><clipPath
   id="clipPath3055"><path
     d="M 127.98,571.68 L 56.187,571.68 L 56.187,550.836 L 127.98,550.836 L 127.98,571.68 z"
     id="path3057" /></clipPath>


















</defs><path
     d="M 157.04929,102.4922 L 214.37381,102.4922 L 214.37381,186.89016 C 205.77302,190.73157 186.65072,195.22262 160.55881,195.22262 C 130.24418,195.22262 82.918621,180.37248 82.918621,113.06313 C 82.918621,74.585509 105.28917,32.718414 167.31658,32.718414 C 186.42476,32.718414 200.17332,36.319733 209.95337,39.024252 L 207.62311,69.840242 C 199.47424,66.253046 187.13796,61.069972 170.3318,61.069972 C 130.01116,61.069972 122.0812,96.864254 122.0812,114.64488 C 122.0812,143.90736 136.06985,166.864 165.21228,166.864 C 170.7908,166.864 175.23242,166.19317 178.49479,164.61847 L 178.49479,129.05016 L 157.04929,129.05016 L 157.04929,102.4922 z"
     id="path2961"
     style="fill:#231f20;fill-opacity:1;fill-rule:nonzero;stroke:none" /><path
     d="M 255.19582,35.422934 L 349.14081,35.422934 L 349.14081,62.877692 L 292.01401,62.877692 L 292.01401,97.99408 L 346.3233,97.99408 L 346.3233,125.44884 L 292.01401,125.44884 L 292.01401,165.0704 L 351.93006,165.0704 L 351.93006,192.5181 L 255.19582,192.5181 L 255.19582,35.422934 z"
     id="path2963"
     style="fill:#231f20;fill-opacity:1;fill-rule:nonzero;stroke:none" /><path
     d="M 437.25307,107.66115 C 449.11624,107.66115 457.76646,99.787678 457.76646,85.156438 C 457.76646,69.628399 450.31668,62.877692 435.14877,62.877692 L 425.11451,62.877692 L 425.11451,107.66115 L 437.25307,107.66115 z M 388.29632,35.422934 L 440.26123,35.422934 C 475.01748,35.422934 495.98281,51.395841 495.98281,85.389465 C 495.98281,112.16633 480.61012,135.12297 444.92882,135.12297 L 426.51973,135.12297 L 426.51973,192.5181 L 388.29632,192.5181 L 388.29632,35.422934 z"
     id="path2965"
     style="fill:#231f20;fill-opacity:1;fill-rule:nonzero;stroke:none" /><path
     d="M 566.92879,65.582212 L 566.47685,65.582212 L 547.14272,130.85082 L 583.72788,130.85082 L 566.92879,65.582212 z M 591.17766,157.41584 L 540.14486,157.41584 L 528.9384,192.5181 L 492.12728,192.5181 L 546.18943,35.422934 L 588.14832,35.422934 L 640.3745,192.5181 L 601.23311,192.5181 L 591.17766,157.41584 z"
     id="path2967"
     style="fill:#231f20;fill-opacity:1;fill-rule:nonzero;stroke:none" /><text
     x="569.68341"
     y="167.40834"
     transform="matrix(0.3141029,0.9493889,-0.9493889,0.3141029,0,0)"
     id="text2969"
     style="font-size:84.73690796px"><tspan
       x="569.68341"
       y="167.40834"
       id="tspan2971"
       style="font-size:67.52001953px;font-variant:normal;font-weight:bold;font-stretch:condensed;writing-mode:lr-tb;fill:#231f20;fill-opacity:1;fill-rule:nonzero;stroke:none;font-family:Frutiger LT 47 LightCn;-inkscape-font-specification:FrutigerLT-BoldCn">T</tspan></text>
<text
     x="585.99432"
     y="243.90904"
     transform="matrix(0.4327957,0.9014843,-0.9014947,0.4328062,0,0)"
     id="text2973"
     style="font-size:84.73670197px"><tspan
       x="585.99432"
       y="243.90904"
       id="tspan2975"
       style="font-size:67.51968384px;font-variant:normal;font-weight:bold;font-stretch:condensed;writing-mode:lr-tb;fill:#231f20;fill-opacity:1;fill-rule:nonzero;stroke:none;font-family:Frutiger LT 47 LightCn;-inkscape-font-specification:FrutigerLT-BoldCn">H</tspan></text>
<text
     x="600.26123"
     y="318.82443"
     transform="matrix(0.5393789,0.8420632,-0.8420632,0.5393789,0,0)"
     id="text2977"
     style="font-size:84.73690796px"><tspan
       x="600.26123"
       y="318.82443"
       id="tspan2979"
       style="font-size:67.52196503px;font-variant:normal;font-weight:bold;font-stretch:condensed;writing-mode:lr-tb;fill:#231f20;fill-opacity:1;fill-rule:nonzero;stroke:none;font-family:Frutiger LT 47 LightCn;-inkscape-font-specification:FrutigerLT-BoldCn">E</tspan></text>
<text
     x="599.63879"
     y="434.70355"
     transform="matrix(0.687081,0.7265809,-0.7265809,0.687081,0,0)"
     id="text2981"
     style="font-size:84.73691559px"><tspan
       x="599.63879"
       y="434.70355"
       id="tspan2983"
       style="font-size:67.52152252px;font-variant:normal;font-weight:bold;font-stretch:condensed;writing-mode:lr-tb;fill:#231f20;fill-opacity:1;fill-rule:nonzero;stroke:none;font-family:Frutiger LT 47 LightCn;-inkscape-font-specification:FrutigerLT-BoldCn">F</tspan></text>
<text
     x="583.42511"
     y="502.88168"
     transform="matrix(0.7636889,0.6455845,-0.6455845,0.7636889,0,0)"
     id="text2985"
     style="font-size:84.73691559px"><tspan
       x="583.42511"
       y="502.88168"
       id="tspan2987"
       style="font-size:67.52033997px;font-variant:normal;font-weight:bold;font-stretch:condensed;writing-mode:lr-tb;fill:#231f20;fill-opacity:1;fill-rule:nonzero;stroke:none;font-family:Frutiger LT 47 LightCn;-inkscape-font-specification:FrutigerLT-BoldCn">A</tspan></text>
<text
     x="577.11761"
     y="565.13318"
     transform="matrix(0.8268773,0.5623824,-0.5623824,0.8268773,0,0)"
     id="text2989"
     style="font-size:84.73690796px"><tspan
       x="577.11761"
       y="565.13318"
       id="tspan2991"
       style="font-size:67.52118683px;font-variant:normal;font-weight:bold;font-stretch:condensed;writing-mode:lr-tb;fill:#231f20;fill-opacity:1;fill-rule:nonzero;stroke:none;font-family:Frutiger LT 47 LightCn;-inkscape-font-specification:FrutigerLT-BoldCn">I</tspan></text>
<text
     x="544.72162"
     y="623.11139"
     transform="matrix(0.8793321,0.476209,-0.476209,0.8793321,0,0)"
     id="text2993"
     style="font-size:84.73690796px"><tspan
       x="544.72162"
       y="623.11139"
       id="tspan2995"
       style="font-size:67.5165863px;font-variant:normal;font-weight:bold;font-stretch:condensed;writing-mode:lr-tb;fill:#231f20;fill-opacity:1;fill-rule:nonzero;stroke:none;font-family:Frutiger LT 47 LightCn;-inkscape-font-specification:FrutigerLT-BoldCn">R</tspan></text>
<text
     x="489.22583"
     y="724.52069"
     transform="matrix(0.9531487,0.3025021,-0.3025021,0.9531487,0,0)"
     id="text2997"
     style="font-size:84.73690796px"><tspan
       x="489.22583"
       y="724.52069"
       id="tspan2999"
       style="font-size:67.51594543px;font-variant:normal;font-weight:bold;font-stretch:condensed;writing-mode:lr-tb;fill:#231f20;fill-opacity:1;fill-rule:nonzero;stroke:none;font-family:Frutiger LT 47 LightCn;-inkscape-font-specification:FrutigerLT-BoldCn">T</tspan></text>
<text
     x="441.71014"
     y="780.64612"
     transform="matrix(0.9817848,0.1899962,-0.1899962,0.9817848,0,0)"
     id="text3001"
     style="font-size:84.73690796px"><tspan
       x="441.71014"
       y="780.64612"
       id="tspan3003"
       style="font-size:67.51956177px;font-variant:normal;font-weight:bold;font-stretch:condensed;writing-mode:lr-tb;fill:#231f20;fill-opacity:1;fill-rule:nonzero;stroke:none;font-family:Frutiger LT 47 LightCn;-inkscape-font-specification:FrutigerLT-BoldCn">R</tspan></text>
<text
     x="382.73923"
     y="836.54108"
     transform="matrix(0.9980829,6.1891908e-2,-6.1891908e-2,0.9980829,0,0)"
     id="text3005"
     style="font-size:84.73691559px"><tspan
       x="382.73923"
       y="836.54108"
       id="tspan3007"
       style="font-size:67.52000427px;font-variant:normal;font-weight:bold;font-stretch:condensed;writing-mode:lr-tb;fill:#231f20;fill-opacity:1;fill-rule:nonzero;stroke:none;font-family:Frutiger LT 47 LightCn;-inkscape-font-specification:FrutigerLT-BoldCn">A</tspan></text>
<text
     x="311.3851"
     y="889.02911"
     transform="matrix(0.9967581,-8.0391979e-2,8.0391979e-2,0.9967686,0,0)"
     id="text3009"
     style="font-size:84.73646545px"><tspan
       x="311.3851"
       y="889.02911"
       id="tspan3011"
       style="font-size:67.52048492px;font-variant:normal;font-weight:bold;font-stretch:condensed;writing-mode:lr-tb;fill:#231f20;fill-opacity:1;fill-rule:nonzero;stroke:none;font-family:Frutiger LT 47 LightCn;-inkscape-font-specification:FrutigerLT-BoldCn">D</tspan></text>
<text
     x="249.28575"
     y="926.02411"
     transform="matrix(0.9793877,-0.2019893,0.2019893,0.9793877,0,0)"
     id="text3013"
     style="font-size:84.73690796px"><tspan
       x="249.28575"
       y="926.02411"
       id="tspan3015"
       style="font-size:67.52043152px;font-variant:normal;font-weight:bold;font-stretch:condensed;writing-mode:lr-tb;fill:#231f20;fill-opacity:1;fill-rule:nonzero;stroke:none;font-family:Frutiger LT 47 LightCn;-inkscape-font-specification:FrutigerLT-BoldCn">E</tspan></text>
<text
     x="130.10104"
     y="968.00079"
     transform="matrix(0.9191456,-0.393918,0.393918,0.9191456,0,0)"
     id="text3017"
     style="font-size:84.73690796px"><tspan
       x="130.10104"
       y="968.00079"
       id="tspan3019"
       style="font-size:67.51682281px;font-variant:normal;font-weight:bold;font-stretch:condensed;writing-mode:lr-tb;fill:#231f20;fill-opacity:1;fill-rule:nonzero;stroke:none;font-family:Frutiger LT 47 LightCn;-inkscape-font-specification:FrutigerLT-BoldCn">C</tspan></text>
<text
     x="45.299229"
     y="982.43018"
     transform="matrix(0.8581631,-0.5133772,0.5133772,0.8581631,0,0)"
     id="text3021"
     style="font-size:84.73690033px"><tspan
       x="45.299229"
       y="982.43018"
       id="tspan3023"
       style="font-size:67.52238464px;font-variant:normal;font-weight:bold;font-stretch:condensed;writing-mode:lr-tb;fill:#231f20;fill-opacity:1;fill-rule:nonzero;stroke:none;font-family:Frutiger LT 47 LightCn;-inkscape-font-specification:FrutigerLT-BoldCn">O</tspan></text>
<text
     x="-57.138035"
     y="985.4389"
     transform="matrix(0.76762,-0.6409052,0.6409052,0.76762,0,0)"
     id="text3025"
     style="font-size:84.73690796px"><tspan
       x="-57.138035"
       y="985.4389"
       id="tspan3027"
       style="font-size:67.51859283px;font-variant:normal;font-weight:bold;font-stretch:condensed;writing-mode:lr-tb;fill:#231f20;fill-opacity:1;fill-rule:nonzero;stroke:none;font-family:Frutiger LT 47 LightCn;-inkscape-font-specification:FrutigerLT-BoldCn">M</tspan></text>
<text
     x="-138.24561"
     y="974.11938"
     transform="matrix(0.6642739,-0.7474794,0.7474898,0.6642844,0,0)"
     id="text3029"
     style="font-size:84.73687744px"><tspan
       x="-138.24561"
       y="974.11938"
       id="tspan3031"
       style="font-size:67.5202713px;font-variant:normal;font-weight:bold;font-stretch:condensed;writing-mode:lr-tb;fill:#231f20;fill-opacity:1;fill-rule:nonzero;stroke:none;font-family:Frutiger LT 47 LightCn;-inkscape-font-specification:FrutigerLT-BoldCn">P</tspan></text>
<text
     x="-209.82353"
     y="956.4881"
     transform="matrix(0.575028,-0.8181337,0.8181337,0.575028,0,0)"
     id="text3033"
     style="font-size:84.73690796px"><tspan
       x="-209.82353"
       y="956.4881"
       id="tspan3035"
       style="font-size:67.51605988px;font-variant:normal;font-weight:bold;font-stretch:condensed;writing-mode:lr-tb;fill:#231f20;fill-opacity:1;fill-rule:nonzero;stroke:none;font-family:Frutiger LT 47 LightCn;-inkscape-font-specification:FrutigerLT-BoldCn">A</tspan></text>
<text
     x="-290.13821"
     y="924.98743"
     transform="matrix(0.4573088,-0.889308,0.889308,0.4573088,0,0)"
     id="text3037"
     style="font-size:84.73690796px"><tspan
       x="-290.13821"
       y="924.98743"
       id="tspan3039"
       style="font-size:67.51831818px;font-variant:normal;font-weight:bold;font-stretch:condensed;writing-mode:lr-tb;fill:#231f20;fill-opacity:1;fill-rule:nonzero;stroke:none;font-family:Frutiger LT 47 LightCn;-inkscape-font-specification:FrutigerLT-BoldCn">N</tspan></text>
<text
     x="-360.6521"
     y="883.04504"
     transform="matrix(0.3314023,-0.9434843,0.9434948,0.3314023,0,0)"
     id="text3041"
     style="font-size:84.73648834px"><tspan
       x="-360.6521"
       y="883.04504"
       id="tspan3043"
       style="font-size:67.51971436px;font-variant:normal;font-weight:bold;font-stretch:condensed;writing-mode:lr-tb;fill:#231f20;fill-opacity:1;fill-rule:nonzero;stroke:none;font-family:Frutiger LT 47 LightCn;-inkscape-font-specification:FrutigerLT-BoldCn">Y</tspan></text>
<path
     d="M 709.73872,58.224224 C 707.95925,36.432715 689.36656,21.377791 669.49575,22.881871 C 660.3936,23.573889 653.66407,27.33762 647.86666,33.509292 C 642.13279,39.652718 638.43968,47.688601 638.43968,56.720144 C 638.43968,74.288929 648.81995,87.260738 664.89171,89.753415 C 666.40286,89.993503 667.92812,89.908766 670.2372,89.908766 C 679.44528,89.908766 689.36656,82.903849 688.87226,73.68871 C 688.37796,64.353527 682.22747,62.750587 677.21387,61.606639 L 677.21387,61.465411 C 680.63866,60.999358 687.41055,58.598478 687.41055,49.23505 C 687.41055,40.641315 680.92817,35.966662 671.62124,35.966662 C 667.20786,35.966662 662.02478,38.042717 659.75807,39.257279 L 660.5207,45.47838 C 663.7407,44.17202 666.36049,43.656537 669.51694,43.656537 C 673.90913,43.656537 678.06124,45.838512 678.06124,50.661455 C 678.06124,57.242688 671.86839,58.676154 665.845,58.676154 L 664.235,58.676154 L 664.235,65.984712 C 665.32952,65.836423 666.67119,65.765809 668.09053,65.765809 C 672.84286,65.765809 678.08243,67.460547 679.00747,73.498052 C 679.75598,78.39867 676.34532,82.169462 668.6272,82.430734 C 667.57505,82.473103 666.60764,82.367182 665.67553,82.247138 C 653.56521,80.192268 646.40494,70.878269 646.40494,57.143828 C 646.40494,49.927068 648.36802,43.1693 652.88026,38.374603 C 657.39956,33.544599 663.47237,30.126877 670.77387,29.674947 C 684.68484,28.820516 699.49968,39.257279 701.56867,58.224224 C 702.65613,68.067828 699.7892,77.840818 694.46489,84.81749 C 689.20415,91.709426 679.44528,95.317806 673.1465,95.946271 C 661.84118,97.076097 651.68688,93.700743 643.98994,86.554597 C 635.6716,78.8506 630.57327,67.502915 631.75252,53.881457 C 632.43042,46.262197 637.61349,33.318634 641.55376,29.357183 L 639.01871,26.815076 C 633.34134,32.478326 626.49177,44.376801 625.72914,57.468653 C 624.88177,72.311735 630.658,83.504068 638.93397,91.539952 C 647.86666,100.21136 660.99382,103.90448 674.09979,102.92294 C 696.24437,101.26351 711.75829,82.720252 709.73872,58.224224"
     id="path3045"
     style="fill:#231f20;fill-opacity:1;fill-rule:nonzero;stroke:none" /><path
     d="M 381.75745,356.9995 C 342.77848,361.1728 265.49841,402.85629 277.03676,499.65409 C 288.15848,549.66299 330.54812,604.3183 411.45774,589.95539 C 445.23952,583.95319 458.8398,572.81735 463.81103,570.49415 L 464.26296,570.04222 L 464.26296,457.03849 L 381.53855,457.03849 L 381.53855,495.01475 L 412.58757,495.01475 L 412.58757,546.41474 L 412.3616,546.41474 C 397.40554,552.43812 379.73083,550.5951 362.50805,541.33759 C 333.4786,525.59065 321.24824,495.4808 331.45198,450.55611 C 343.9083,395.91493 410.54682,383.40917 458.15484,407.02253 C 523.4305,439.43439 532.61034,523.91003 503.61619,581.78534 C 472.12937,645.22504 372.00565,662.66672 299.03305,620.99734 C 225.14952,578.84073 191.99621,468.68981 237.49993,386.19843 C 281.06176,307.18126 402.18611,258.42223 525.24529,308.36758 L 531.80534,284.62712 C 491.23754,264.72101 450.93102,256.74868 402.18611,256.74868 C 282.89067,256.74868 171.65229,343.5687 167.80382,475.10157 C 167.33777,490.84145 169.37145,506.1294 172.78917,520.9513 L 172.56321,520.9513 C 199.60841,642.64056 310.56433,716.42523 434.36495,686.28007 C 543.56964,660.13167 586.2488,552.16273 560.57352,466.30306 C 537.25674,388.95944 461.77028,348.20099 381.75745,356.9995"
     id="path3047"
     style="fill:#231f20;fill-opacity:1;fill-rule:nonzero;stroke:none" /></svg>